# AST/ASF file generated using VICON BodyLanguage
# -----------------------------------------------
:version 1.10
:name VICON
:units
  mass 1.0
  length 0.45
  angle deg
:documentation
   .ast/.asf automatically generated from VICON data using
   VICON BodyBuilder and BodyLanguage model FoxedUp or BRILLIANT.MOD
:root
   order TX TY TZ RX RY RZ
   axis XYZ
   position 0 0 0  
   orientation 0 0 0 
:bonedata
  begin
     id 1 
     name lhipjoint
     direction 0.729592 -0.560644 0.39163 
     length 2.81907 
     axis 0 0 0  XYZ
  end
  begin
     id 2 
     name lfemur
     direction 0.34202 -0.939693 0  
     length 5.92797  
     axis 0 0 20  XYZ
    dof rx ry rz
    limits (-160.0 20.0)
           (-70.0 70.0)
           (-60.0 70.0)
  end
  begin
     id 3 
     name ltibia
     direction 0.34202 -0.939693 0   
     length 7.88118   
     axis 0 0 20   XYZ
    dof rx
    limits (-10.0 170.0)
  end
  begin
     id 4 
     name lfoot
     direction 0.0476411 -0.130893 0.990251   
     length 1.97348   
     axis -90 7.62852e-016 20   XYZ
    dof rx rz
    limits (-45.0 90.0)
           (-70.0 20.0)
  end
  begin
     id 5 
     name ltoes
     direction 1.53635e-011 -4.21786e-011 1   
     length 0.999366   
     axis -90 7.62852e-016 20   XYZ
    dof rx
    limits (-90.0 20.0)
  end
  begin
     id 6 
     name rhipjoint
     direction -0.702143 -0.583724 0.407752   
     length 2.70761  
     axis 0 0 0  XYZ 
  end
  begin
     id 7 
     name rfemur
     direction -0.34202 -0.939693 0   
     length 5.98021   
     axis 0 0 -20   XYZ
    dof rx ry rz
    limits (-160.0 20.0)
           (-70.0 70.0)
           (-70.0 60.0)
  end
  begin
     id 8 
     name rtibia
     direction -0.34202 -0.939693 0   
     length 7.66627   
     axis 0 0 -20   XYZ
    dof rx
    limits (-10.0 170.0)
 end
 begin
     id 9 
     name rfoot
     direction -0.0516088 -0.141794 0.98855   
     length 2.01387  
     axis -90 -7.62852e-016 -20   XYZ
    dof rx rz
    limits (-45.0 90.0)
           (-20.0 70.0)
  end
  begin
     id 10 
     name rtoes
     direction -1.53568e-011 -4.21939e-011 1   
     length 1.01862   
     axis -90 -7.62852e-016 -20   XYZ
    dof rx
    limits (-90.0 20.0)
  end
  begin
     id 11 
     name lowerback
     direction -0.0436953 0.98817 -0.147007   
     length 1.83615   
     axis 0 0 0   XYZ
    dof rx ry rz
    limits (-20.0 45.0)
           (-30.0 30.0)
           (-30.0 30.0)
  end
  begin
     id 12 
     name upperback
     direction 0.0239184 0.998197 0.0550483   
     length 1.80285   
     axis 0 0 0   XYZ
    dof rx ry rz
    limits (-20.0 45.0)
           (-30.0 30.0)
           (-30.0 30.0)
  end
  begin
     id 13 
     name thorax
     direction 0.0460768 0.990713 0.127927   
     length 1.87059   
     axis 0 0 0   XYZ
    dof rx ry rz
    limits (-20.0 45.0)
           (-30.0 30.0)
           (-30.0 30.0)
  end
  begin
     id 14 
     name lowerneck
     direction -0.0234223 0.997727 0.0631897   
     length 1.79511   
     axis 0 0 0   XYZ
    dof rx ry rz
    limits (-20.0 45.0)
           (-30.0 30.0)
           (-30.0 30.0)
  end
  begin
     id 15 
     name upperneck
     direction 0.0345303 0.984409 -0.172474   
     length 1.80359   
     axis 0 0 0   XYZ
    dof rx ry rz
    limits (-20.0 45.0)
           (-30.0 30.0)
           (-30.0 30.0)
  end
  begin
     id 16
     name head
     direction 0.00973222 0.9978 -0.0655778  
     length 1.81938  
     axis 0 0 0   XYZ
    dof rx ry rz
    limits (-20.0 45.0)
           (-30.0 30.0)
           (-30.0 30.0)
  end
  begin
     id 17 
     name lclavicle
     direction 0.971201 0.212597 -0.10757  
     length 3.74698  
     axis 0 0 0   XYZ
    dof ry rz
    limits (-20.0 10.0)
           (0.0 20.0)
  end
  begin
     id 18 
     name lhumerus
     direction 1 -4.4896e-011 1.42684e-027   
     length 4.83799   
     axis 180 -30 -90   XYZ
    dof rx ry rz
    limits (-60.0 90.0)
           (-90.0 90.0)
           (-90.0 90.0)
  end
  begin
     id 19
     name lradius
     direction 1 -4.48978e-011 1.53407e-026   
     length 2.68259   
     axis 180 -30 -90   XYZ
    dof rx
    limits (-10.0 170.0)
  end
  begin
     id 20
     name lwrist
     direction 1 -4.48982e-011 3.34345e-026   
     length 1.34129   
     axis -2.22354e-014 90 90   XYZ
    dof ry
    limits (-180.0 0.0)
 end
  begin
     id 21 
     name lhand
     direction 1 -4.48992e-011 6.6869e-026   
     length 0.724765   
     axis -4.26681e-014 90 90   XYZ
    dof rx rz
    limits (-90.0 90.0)
           (-45.0 45.0)
  end
  begin
     id 22 
     name lfingers
     direction 1 -4.48965e-011 1.33738e-025   
     length 0.584325   
     axis -8.53362e-014 90 90   XYZ
    dof rx
    limits (0.0 90.0)
  end
  begin
     id 23
     name lthumb
     direction 0.707107 -6.34915e-011 0.707107   
     length 0.838977   
     axis -90 45 2.85299e-015   XYZ
    dof rx rz
    limits (-45.0 45.0)
           (-45.0 45.0)
  end
  begin
     id 24 
     name rclavicle
     direction -0.987829 0.146084 -0.0534135   
     length 3.83678  
     axis 0 0 0   XYZ 
    dof ry rz
    limits (-10.0 20.0)
           (-20.0 0.0)
  end
  begin
     id 25 
     name rhumerus
     direction -1 -4.48963e-011 -3.4086e-018  
     length 4.61639   
     axis 180 30 90   XYZ
    dof rx ry rz
    limits (-90.0 60.0)
           (-90.0 90.0)
           (-90.0 90.0)
  end
  begin
     id 26 
     name rradius
     direction -1 -4.48983e-011 1.36226e-026   
     length 2.86915   
     axis 180 30 90   XYZ
    dof rx
    limits (-10.0 170.0)
  end
  begin
     id 27 
     name rwrist
     direction -1 -4.48927e-011 3.34345e-026   
     length 1.43458   
     axis -2.22354e-014 -90 -90   XYZ
    dof ry
    limits (-180.0 0.0)
  end
  begin
     id 28
     name rhand
     direction -1 -4.49071e-011 6.6869e-026   
     length 0.726007   
     axis -4.26681e-014 -90 -90   XYZ
    dof rx rz
    limits (-90.0 90.0)
           (-45.0 45.0)
  end
  begin
     id 29
     name rfingers
     direction -1 -4.48886e-011 1.33738e-025   
     length 0.585326   
     axis -8.53362e-014 -90 -90   XYZ
    dof rx
    limits (0.0 90.0)
  end
  begin
     id 30
     name rthumb
     direction -0.707107 -6.34932e-011 0.707107   
     length 0.840414   
     axis -90 -45 -2.85299e-015   XYZ
    dof rx rz
    limits (-45.0 45.0)
           (-45.0 45.0)
  end
:hierarchy
  begin
    root lhipjoint rhipjoint lowerback
    lhipjoint lfemur
    lfemur ltibia
    ltibia lfoot
    lfoot ltoes
    rhipjoint rfemur
    rfemur rtibia
    rtibia rfoot
    rfoot rtoes
    lowerback upperback
    upperback thorax
    thorax lowerneck lclavicle rclavicle
    lowerneck upperneck
    upperneck head
    lclavicle lhumerus
    lhumerus lradius
    lradius lwrist
    lwrist lhand lthumb
    lhand lfingers
    rclavicle rhumerus
    rhumerus rradius
    rradius rwrist
    rwrist rhand rthumb
    rhand rfingers
  end

#!OML:ASF F:\VICON\USERDATA\INSTALL\rory3\rory3.ASF
:FULLY-SPECIFIED
:DEGREES
160
root -2.51668 16.2253 -10.5228 2.65964 0.419586 -2.04034
lowerback 10.7558 1.57868 -3.03789
upperback -4.21134 1.86417 1.99052
thorax -10.7854 1.18938 3.49784
lowerneck -9.75933 -5.93642 -4.55702
upperneck 17.3619 -8.19463 4.36225
head 7.29956 -3.85414 1.39471
rclavicle 1.50673e-014 2.44505e-014
rhumerus -30.8261 5.53674 -87.4858
rradius 25.5713
rwrist 5.94577
rhand -12.3654 22.1286
rfingers 7.12502
rthumb 13.7048 -7.40017
lclavicle 1.50673e-014 2.44505e-014
lhumerus -40.0789 5.14403 86.3812
lradius 21.7787
lwrist -0.386829
lhand -3.81508 19.9267
lfingers 7.12502
lthumb 21.9315 48.7036
rfemur 18.4778 11.3219 30.31
rtibia -2.54444e-014
rfoot -14.3715 -7.98404
rtoes 14.5168
lfemur -36.851 -23.881 -8.16774
ltibia 26.6368
lfoot -13.6034 19.4328
ltoes 29.9864
161
root -2.49881 16.2073 -10.4043 2.69771 0.654523 -2.15165
lowerback 10.8657 1.48982 -2.93051
upperback -4.24414 1.7599 2.00403
thorax -10.8745 1.13447 3.47159
lowerneck -10.1159 -5.97041 -4.30333
upperneck 17.3966 -8.2459 4.21354
head 7.3589 -3.86873 1.28977
rclavicle -7.31776e-015 -5.36719e-015
rhumerus -30.8485 5.4007 -87.5208
rradius 25.5866
rwrist 6.32232
rhand -12.3719 21.8715
rfingers 7.12502
rthumb 13.6986 -7.65762
lclavicle -7.31776e-015 -5.36719e-015
lhumerus -40.1164 5.08611 86.3738
lradius 21.4986
lwrist -0.675632
lhand -4.06276 19.3678
lfingers 7.12502
lthumb 21.6937 48.1723
rfemur 18.8938 10.8167 30.3394
rtibia 1.59028e-014
rfoot -14.3228 -7.56174
rtoes 14.2838
lfemur -36.7635 -23.1639 -8.59547
ltibia 26.6976
lfoot -12.871 18.2573
ltoes 31.0963
162
root -2.48935 16.1838 -10.3028 2.78499 1.26611 -2.23936
lowerback 11.2687 1.28958 -2.96388
upperback -4.37371 1.48444 2.07802
thorax -11.2405 1.01692 3.62566
lowerneck -10.1224 -5.97108 -4.25795
upperneck 17.3261 -8.24834 4.19853
head 7.33452 -3.86904 1.27794
rclavicle -1.60332e-014 -8.94531e-015
rhumerus -30.9669 5.5226 -87.5367
rradius 25.7512
rwrist 6.30067
rhand -12.2215 21.8284
rfingers 7.12502
rthumb 13.8435 -7.69089
lclavicle -1.60332e-014 -8.94531e-015
lhumerus -40.2213 5.1884 86.3531
lradius 21.3599
lwrist -1.01248
lhand -3.81505 19.2127
lfingers 7.12502
lthumb 21.9316 47.9895
rfemur 19.1819 9.9486 30.3495
rtibia -2.8625e-014
rfoot -14.1442 -7.1737
rtoes 13.2183
lfemur -36.8787 -22.2197 -9.16836
ltibia 26.8149
lfoot -11.4837 16.5933
ltoes 31.833
163
root -2.44507 16.1705 -10.1295 2.57947 0.370051 -2.30462
lowerback 10.8979 1.49768 -2.8361
upperback -4.23912 1.79487 2.10842
thorax -10.8918 1.14943 3.52426
lowerneck -9.77386 -5.89382 -4.47148
upperneck 17.2467 -8.13587 4.31406
head 7.25605 -3.82597 1.3721
rclavicle 9.2994e-015 9.54166e-015
rhumerus -31.1062 5.71685 -87.5887
rradius 25.921
rwrist 5.97807
rhand -12.0449 21.6315
rfingers 7.12502
rthumb 14.0137 -7.87611
lclavicle 9.2994e-015 9.54166e-015
lhumerus -40.4691 5.10193 86.539
lradius 21.4097
lwrist -0.966005
lhand -3.73271 19.7853
lfingers 7.12502
lthumb 22.0106 48.5528
rfemur 20.0485 10.5211 30.3079
rtibia -3.18055e-015
rfoot -14.0689 -7.02223
rtoes 10.6144
lfemur -36.0417 -21.9727 -9.53597
ltibia 27.0065
lfoot -11.2554 16.4926
ltoes 33.478
164
root -2.41282 16.1571 -9.97895 2.5225 -0.0792868 -2.24503
lowerback 10.7876 1.6088 -2.90073
upperback -4.28423 1.93686 2.1042
thorax -10.8919 1.22268 3.52861
lowerneck -9.47809 -5.88874 -4.49583
upperneck 17.262 -8.12611 4.25589
head 7.20682 -3.83309 1.36703
rclavicle -5.64673e-015 -1.63003e-014
rhumerus -31.3879 5.71733 -87.5932
rradius 25.8941
rwrist 5.94356
rhand -12.2013 21.7311
rfingers 7.12502
rthumb 13.863 -7.78693
lclavicle -5.64673e-015 -1.63003e-014
lhumerus -40.7265 5.11713 86.5911
lradius 21.1172
lwrist -1.34584
lhand -3.79827 19.9886
lfingers 7.12502
lthumb 21.9477 48.7636
rfemur 20.7038 10.674 30.1376
rtibia -1.59028e-014
rfoot -14.0393 -6.86836
rtoes 7.69728
lfemur -35.5237 -21.3582 -10.1453
ltibia 27.2667
lfoot -9.99473 15.6694
ltoes 34.1469
165
root -2.3825 16.1411 -9.83967 2.46675 -0.136697 -2.26261
lowerback 10.8602 1.6273 -2.79601
upperback -4.37562 1.97265 2.06256
thorax -11.0347 1.23423 3.41536
lowerneck -9.34184 -5.93785 -4.47551
upperneck 17.4043 -8.21408 4.27813
head 7.23318 -3.87306 1.36487
rclavicle -7.93275e-015 -1.37161e-014
rhumerus -31.8127 5.58871 -87.6417
rradius 25.8903
rwrist 5.9373
rhand -12.2335 21.9785
rfingers 7.12502
rthumb 13.8319 -7.54163
lclavicle -7.93275e-015 -1.37161e-014
lhumerus -40.9507 4.95068 86.6139
lradius 20.9456
lwrist -1.61376
lhand -3.74342 20.2344
lfingers 7.12502
lthumb 22.0003 49.0032
rfemur 21.3065 10.4522 30.022
rtibia 1.59028e-014
rfoot -13.9657 -6.5389
rtoes 5.6998
lfemur -35.2444 -20.8036 -10.6737
ltibia 27.6559
lfoot -8.46695 14.5448
ltoes 35.3876
